<?xml version="1.0" encoding="utf-8"?>
<!-- Generator: Adobe Illustrator 25.0.1, SVG Export Plug-In . SVG Version: 6.00 Build 0)  -->
<svg version="1.1" id="B_x5F_P_x5F_11" xmlns="http://www.w3.org/2000/svg" xmlns:xlink="http://www.w3.org/1999/xlink" x="0px"
	 y="0px" viewBox="0 0 184 160" style="enable-background:new 0 0 184 160;" xml:space="preserve">
<style type="text/css">
	.st0{fill:none;stroke:#000000;stroke-width:0.5;stroke-miterlimit:10;}
</style>
<path id="B_x5F_P_x5F_11_1_" class="st0" d="M50.6,12.1L61,12.2c1.3,0.1,13.7,0.1,14.5,0.1c0.5,0,6.7,0,7.1-0.1s5.3-0.1,5.7-0.1
	C89.3,12,99.9,12,100.7,12c2.5,0,27,0.5,28.3,1.6c1.2,1.1,9.4,15.5,9.4,17.4c0,1.4,6,13.9,5.1,15.1s5.1,14.6,3.4,15.2
	c2.4,0.2,14.1,18,15.5,19.3s-15.2,33.3-15.2,35.4c0,1.6-14,26.6-14.8,27.9s-17,2.3-18.3,3S95.2,148,93.6,148c-1,0-10.5,0-11.6-0.1
	c-0.4,0-4.8-0.1-5.3-0.1s-6.1-0.1-6.8-0.1l-11,0.1c-0.5,0-7.3,0-8.3,0c-0.3-0.4-0.5-0.8-0.6-1.2c0-0.2-0.5-1.2-0.5-1.2
	c1.1,0-2.6-8.1-2.1-8.2s-1.8-5.1-1.5-5.5s-3.4-7.5-3.4-8.4L23.4,80l19-43.3c0-0.9,3.6-7.9,3.4-8.3s2.1-5.3,1.5-5.5s3.2-8.1,2.1-8.1
	c-0.1,0,0.5-1.2,0.5-1.3C50,13,50.3,12.5,50.6,12.1z"/>
</svg>
