<?xml version="1.0" encoding="UTF-8"?>
<svg id="U0411_S_2" data-character="Б" data-variant="Square" data-layer="2" xmlns="http://www.w3.org/2000/svg" viewBox="0 0 184 160">
  <defs>
    <style>
      .cls-1 {
        fill: none;
        stroke: #000;
        stroke-miterlimit: 10;
        stroke-width: .5px;
      }
    </style>
  </defs>
  <path id="U0411_S_2_outline" class="cls-1" d="M92.369,21.213 L94.002,21.213 L95.636,21.213 L97.269,21.213 L98.902,21.213 L100.527,21.358 L102.152,21.512 L103.777,21.667 L105.398,21.845 L107,22.142 L108.602,22.44 L110.171,22.859 L111.739,23.283 L113.299,23.733 L114.824,24.275 L116.313,24.894 L117.778,25.564 L119.244,26.234 L120.669,26.966 L122.013,27.824 L123.358,28.681 L124.703,29.539 L125.964,30.491 L127.166,31.509 L128.351,32.543 L129.434,33.665 L130.493,34.802 L131.407,36.037 L132.321,37.271 L133.235,38.505 L134.018,39.8 L134.711,41.135 L135.404,42.471 L135.944,43.848 L136.418,45.242 L136.893,46.637 L137.233,48.046 L137.49,49.464 L137.694,50.935 L137.696,52.565 L137.507,54.186 L137.319,55.807 L137.13,57.427 L136.755,59.004 L136.3,60.563 L135.844,62.121 L135.256,63.618 L134.534,65.053 L133.811,66.489 L132.96,67.829 L132.011,69.099 L131.062,70.368 L129.97,71.483 L128.844,72.56 L127.718,73.637 L126.5,74.574 L125.254,75.466 L124.007,76.358 L122.727,77.177 L121.401,77.896 L120.075,78.614 L118.749,79.333 L117.396,79.966 L116.019,80.52 L114.641,81.074 L113.264,81.628 L111.864,82.07 L110.461,82.495 L109.058,82.92 L107.646,83.264 L106.231,83.581 L104.816,83.897 L103.4,84.192 L101.981,84.392 L100.563,84.592 L99.144,84.792 L97.726,84.993 L96.308,85.178 L94.898,85.237 L93.487,85.296 L92.077,85.356 L90.667,85.415 L89.257,85.474 L88.51,86.274 L88.51,87.907 L88.51,89.54 L88.51,91.174 L88.51,92.807 L88.51,94.44 L88.51,96.073 L88.51,97.707 L88.51,99.34 L88.51,100.973 L88.51,102.606 L88.51,104.24 L88.51,105.873 L88.51,107.506 L88.51,109.139 L88.51,110.773 L88.51,112.406 L88.51,114.039 L88.51,115.672 L88.51,117.305 L88.51,118.939 L88.51,120.572 L88.544,122.203 L88.749,123.821 L88.954,125.439 L89.426,126.977 L90.03,128.475 L91.039,129.637 L92.226,130.604 L93.604,131.155 L94.982,131.707 L96.392,132.011 L97.81,132.244 L99.229,132.478 L100.648,132.711 L102.066,132.944 L103.485,133.177 L104.903,133.41 L106.322,133.643 L107.729,133.679 L109.135,133.708 L110.542,133.736 L111.926,133.664 L113.28,133.454 L114.569,133.076 L115.858,132.699 L117.019,132.101 L117.959,131.276 L118.899,130.452 L119.71,129.475 L120.484,128.459 L121.136,127.336 L121.789,126.213 L122.314,125.004 L122.814,123.779 L123.211,122.501 L123.562,121.2 L123.899,119.893 L124.123,118.544 L124.347,117.195 L124.433,115.808 L124.512,114.42 L124.748,113.118 L125.83,112.762 L126.066,113.914 L125.755,115.329 L125.444,116.745 L125.133,118.16 L124.822,119.576 L124.511,120.991 L124.2,122.407 L123.889,123.822 L123.578,125.237 L123.267,126.653 L122.956,128.068 L122.645,129.484 L122.334,130.899 L122.023,132.315 L121.712,133.73 L121.401,135.145 L121.08,136.56 L120.566,137.933 L119.256,138.67 L117.643,138.786 L116.01,138.785 L114.377,138.783 L112.744,138.782 L111.11,138.78 L109.477,138.778 L107.844,138.777 L106.211,138.775 L104.577,138.774 L102.944,138.772 L101.311,138.771 L99.678,138.769 L98.045,138.767 L96.411,138.766 L94.778,138.764 L93.145,138.763 L91.512,138.761 L89.878,138.759 L88.245,138.758 L86.612,138.756 L84.979,138.755 L83.345,138.753 L81.712,138.752 L80.079,138.75 L78.446,138.748 L76.812,138.747 L75.179,138.745 L73.546,138.744 L71.913,138.742 L70.28,138.74 L68.646,138.739 L67.013,138.737 L65.432,138.683 L64.014,138.467 L62.595,138.251 L61.176,138.035 L59.758,137.819 L58.339,137.603 L56.92,137.386 L55.502,137.17 L54.083,136.954 L52.664,136.738 L51.245,136.522 L49.827,136.306 L48.408,136.09 L46.989,135.874 L46.575,134.529 L47.465,133.584 L48.882,133.294 L50.299,133.004 L51.715,132.714 L53.114,132.286 L54.486,131.73 L55.776,130.924 L56.819,129.773 L57.694,128.465 L58.191,126.924 L58.469,125.319 L58.617,123.694 L58.735,122.066 L58.74,120.433 L58.74,118.8 L58.74,117.167 L58.74,115.533 L58.74,113.9 L58.74,112.267 L58.74,110.634 L58.74,109 L58.74,107.367 L58.74,105.734 L58.74,104.101 L58.74,102.468 L58.74,100.834 L58.74,99.201 L58.74,97.568 L58.74,95.935 L58.74,94.301 L58.74,92.668 L58.74,91.035 L58.74,89.402 L58.74,87.768 L58.74,86.135 L58.74,84.502 L58.74,82.869 L58.74,81.235 L58.74,79.602 L58.74,77.969 L58.74,76.336 L58.74,74.702 L58.74,73.069 L58.74,71.436 L58.74,69.803 L58.74,68.17 L58.74,66.536 L58.74,64.903 L58.74,63.27 L58.74,61.637 L58.74,60.003 L58.74,58.37 L58.74,56.737 L58.74,55.104 L58.74,53.47 L58.74,51.837 L58.74,50.204 L58.74,48.571 L58.74,46.937 L58.74,45.304 L58.74,43.671 L58.74,42.038 L58.74,40.405 L58.74,38.771 L58.74,37.138 L58.74,35.505 L58.597,33.881 L58.409,32.26 L58.222,30.64 L57.782,29.09 L57.154,27.613 L56.15,26.408 L54.919,25.49 L53.549,24.906 L52.153,24.462 L50.742,24.098 L49.33,23.765 L48.126,23.765 L46.997,23.601 L46.923,22.294 L48.3,21.806 L49.933,21.823 L51.566,21.839 L53.199,21.856 L54.832,21.873 L56.465,21.89 L58.099,21.907 L59.732,21.924 L61.365,21.941 L62.998,21.958 L64.631,21.974 L66.264,21.991 L67.897,22.008 L69.531,22.025 L71.164,22.042 L72.797,22.059 L74.43,22.076 L76.062,22.062 L77.693,21.977 L79.324,21.892 L80.954,21.807 L82.585,21.722 L84.216,21.637 L85.846,21.552 L87.477,21.467 L89.108,21.382 L90.739,21.297 Z"/>
</svg>
